<svg id="visual" viewBox="0 0 1920 1080" width="1920" height="1080" xmlns="http://www.w3.org/2000/svg" xmlns:xlink="http://www.w3.org/1999/xlink" version="1.1"><rect x="0" y="0" width="1920" height="1080" fill="#FFFFFF"></rect><defs><linearGradient id="grad1_0" x1="43.8%" y1="0%" x2="100%" y2="100%"><stop offset="14.444444444444446%" stop-color="#ffffff" stop-opacity="1"></stop><stop offset="85.55555555555554%" stop-color="#ffffff" stop-opacity="1"></stop></linearGradient></defs><defs><linearGradient id="grad2_0" x1="0%" y1="0%" x2="56.3%" y2="100%"><stop offset="14.444444444444446%" stop-color="#ffffff" stop-opacity="1"></stop><stop offset="85.55555555555554%" stop-color="#ffffff" stop-opacity="1"></stop></linearGradient></defs><g transform="translate(1920, 0)"><path d="M0 918C-96.8 913.3 -193.6 908.6 -283.7 873.1C-373.7 837.6 -457 771.2 -500.8 689.3C-544.6 607.3 -548.8 509.8 -612.4 445C-676 380.1 -798.9 348.1 -859.8 279.4C-920.6 210.6 -919.3 105.3 -918 0L0 0Z" fill="#26A69A"></path></g><g transform="translate(0, 1080)"><path d="M0 -918C85 -880.4 170 -842.7 267.3 -822.7C364.6 -802.6 474.4 -800.2 539.6 -742.7C604.8 -685.2 625.6 -572.6 672.3 -488.4C719 -404.3 791.7 -348.6 836.9 -271.9C882.2 -195.3 900.1 -97.6 918 0L0 0Z" fill="#26A69A"></path></g></svg>