<svg xmlns="http://www.w3.org/2000/svg" viewBox="0 0 1440 320"><path fill="#19d19a" fill-opacity="0.8" d="M0,0L34.3,53.3C68.6,107,137,213,206,261.3C274.3,309,343,299,411,282.7C480,267,549,245,617,208C685.7,171,754,117,823,85.3C891.4,53,960,43,1029,64C1097.1,85,1166,139,1234,154.7C1302.9,171,1371,149,1406,138.7L1440,128L1440,320L1405.7,320C1371.4,320,1303,320,1234,320C1165.7,320,1097,320,1029,320C960,320,891,320,823,320C754.3,320,686,320,617,320C548.6,320,480,320,411,320C342.9,320,274,320,206,320C137.1,320,69,320,34,320L0,320Z"></path></svg>
